<?xml version="1.0" encoding="utf-8" ?><svg xmlns="http://www.w3.org/2000/svg" xmlns:xlink="http://www.w3.org/1999/xlink" width="276" height="220" viewBox="0 0 276 220"><clipPath id="cl_8"><rect x="0.0005645752" width="275.62781" height="220.24762"/></clipPath><g clip-path="url(#cl_8)"><path fill="#0C3FD8" transform="matrix(0.636554 0 0 0.636554 -73.2031 0)" d="M230.498 45.6737C245.344 45.3042 260.21 45.6715 275.058 45.6285C294.727 45.5714 314.438 45.2255 334.101 45.8187C341.979 58.965 346.674 79.9576 347.73 95.1854C347.933 98.1176 348.289 101.173 347.934 104.1C351.192 100.621 354.711 98.0677 359.178 96.3151C365.046 94.0131 371.406 94.4675 377.12 97.057C382.752 99.6095 386.914 104.168 389.043 109.962C391.203 116.018 390.861 122.685 388.094 128.488C385.48 133.923 380.65 138.373 374.916 140.289C368.855 142.315 361.755 141.803 356.067 138.878C351.15 136.348 347.948 132.741 346.268 127.497C345.413 139.662 336.994 158.151 331.719 169.354C329.339 168.586 326.98 167.741 324.615 166.928C316.244 163.812 307.842 160.496 299.344 157.752C300.13 152.98 300.895 148.238 300.771 143.382C300.534 134.045 296.603 125.674 289.817 119.304C283.1 113 273.977 109.972 264.847 110.266C255.603 110.502 246.847 114.467 240.57 121.258C231.72 130.822 231.306 141.585 231.719 153.916C223.327 154.974 215.185 157.488 207.657 161.344C204.343 163.063 201.285 165.317 197.675 166.384C197.495 165.416 197.38 164.438 197.33 163.455C196.967 157.095 197.248 150.602 197.255 144.227L197.431 106.142C197.486 100.323 197.497 94.5032 197.462 88.6836C197.432 83.2591 197.081 77.5948 198.028 72.238C199 66.7346 201.359 61.5981 205.122 57.4483C212.106 49.7474 220.184 46.2216 230.498 45.6737Z"/><path fill="#6DE907" transform="matrix(0.636554 0 0 0.636554 -73.2031 0)" d="M357.47 45.6726C369.388 45.4039 381.304 45.6672 393.222 45.6231C403.652 45.5844 414.184 45.1937 424.604 45.5707C434.452 45.9271 443.184 49.3111 449.918 56.6601C454.259 61.4261 457.179 67.3127 458.348 73.6534C459.513 80.1463 459.034 87.187 459.003 93.7713L458.809 123.908C458.667 147.912 459.545 172.059 458.531 196.028C452.045 197.253 445.646 198.991 439.116 199.975C428.851 201.521 418.547 201.352 408.21 200.998C409.94 203.316 411.467 205.754 412.494 208.467C414.858 214.708 414.773 222.192 412.019 228.294C409.629 233.495 405.26 237.524 399.885 239.486C393.572 241.854 386.25 241.348 380.168 238.585C375.999 236.345 372.424 233.196 370.168 228.981C367.286 223.597 366.468 216.521 368.264 210.66C370.181 204.402 375.561 198.681 381.279 195.67C367.171 190.612 353.756 183.797 341.35 175.386C343.001 171.177 345.145 167.156 346.864 162.968C348.624 158.681 349.917 153.848 352.179 149.822C357.639 151.74 363.288 153.371 369.137 153.031C377.821 152.526 386.889 148.562 392.669 141.982C399.225 134.52 402.526 125.221 401.772 115.255C401.059 105.841 396.364 97.2458 389.149 91.1899C379.985 83.4985 369.008 83.0269 357.66 84.0444C356.203 76.9229 355.039 70.1617 352.927 63.1602C351.194 57.4137 348.561 51.7703 347.409 45.8745L357.47 45.6726Z"/><path fill="#FFAD26" transform="matrix(0.636554 0 0 0.636554 -73.2031 0)" d="M262.624 121.512C263.69 121.424 264.759 121.339 265.828 121.318C272.015 121.245 277.982 123.613 282.437 127.908C286.991 132.337 289.598 138.396 289.681 144.749C289.722 153.412 285.392 158.477 279.613 164.347C283.996 164.793 288.442 166.217 292.651 167.484C303.766 170.83 314.159 174.922 324.862 179.393C323.517 183.359 321.116 187.316 319.266 191.085C316.047 197.584 312.984 204.159 310.079 210.805C304.844 209.236 299.59 207.474 294.086 207.25C284.992 206.879 276.335 209.96 269.654 216.147C262.86 222.439 259.364 231.09 259.042 240.28C258.721 249.419 261.86 258.371 268.172 265.048C277.053 274.443 286.316 275.394 298.48 275.728C299.567 285.633 300.74 295.666 303.356 305.305L304.361 307.738C292.487 308.149 280.662 307.589 268.808 307.845C256.568 308.109 242.719 309.344 230.622 308.361C220.443 307.635 211.011 302.75 204.541 294.856C201.27 290.944 198.886 286.42 197.972 281.374C196.739 274.56 197.145 267.203 197.173 260.306L197.21 234.418L197.147 204.981C197.083 196.392 196.815 187.821 197.607 179.255C209.559 170.858 236.201 161.324 250.571 162.49C250.511 162.437 250.449 162.383 250.389 162.329L250.089 162.054C246.713 159.052 244.379 155.053 243.424 150.636C241.932 143.995 243.005 136.816 246.72 131.078C250.534 125.188 256.021 122.899 262.624 121.512Z"/><path fill="#EC1C68" transform="matrix(0.636554 0 0 0.636554 -73.2031 0)" d="M335.195 185.172C343.818 189.502 351.872 194.937 360.479 199.327C358.888 205.478 356.259 210.546 356.071 217.097C355.854 226.193 359.303 234.994 365.641 241.519C371.963 248.21 380.684 252.114 389.885 252.372C399.172 252.514 408.137 248.969 414.816 242.513C423.585 233.978 425.148 223.72 425.27 212.071C436.755 212.028 447.851 209.339 459.022 207C458.794 214.206 459.021 221.406 459.049 228.613L458.979 256.933C458.967 264.688 459.678 273.425 458.047 281.043C456.911 286.27 454.518 291.142 451.075 295.236C442.314 305.757 434.638 306.792 422.016 307.962C413.04 308.166 404.03 308.005 395.051 308.011L343.843 308.031C334.574 308.027 325.275 307.85 316.012 308.141C310.939 294.635 306.845 272.178 309.858 257.86L309.525 258.201C307.907 259.879 306.143 261.221 304.093 262.341C298.254 265.531 291.757 265.717 285.467 263.818C279.719 262.082 274.947 258.483 272.135 253.127C269.111 247.365 268.576 239.93 270.511 233.738C272.313 228.07 276.329 223.372 281.646 220.71C287.322 217.84 294.687 217.13 300.746 219.13C307.1 221.229 311.326 226.131 314.267 231.967C319.887 216.128 324.908 198.725 335.195 185.172Z"/><path fill="#040453" transform="matrix(0.636554 0 0 0.636554 -73.2031 0)" d="M452.995 24.2835C461.241 23.7154 474.449 29.0907 481.868 32.8185C488.137 35.9684 494.176 40.4255 498.752 45.7483C512.056 61.2256 509.881 80.3716 507.967 99.1458C506.495 113.585 504.25 127.914 502.398 142.305C501.704 147.697 499.675 156.646 501.417 161.701C504.374 170.283 515.245 170.535 522.146 173.947C524.758 175.239 527.735 177.194 528.616 180.138C530.882 187.711 520.038 194.637 515.568 199.335C511.711 203.389 508.427 208.112 507.004 213.593C505.648 218.813 506.023 224.673 506.051 230.041C506.089 237.216 506.624 244.332 507.004 251.493C507.281 256.708 507.36 261.937 507.683 267.148C508.321 277.461 511.844 306.989 508.472 315.136C508.161 315.881 507.806 316.608 507.41 317.312C502.988 325.205 493.698 332.044 485.025 334.419C482.513 335.189 480.043 335.673 477.413 335.815C468.645 336.289 459.184 331.901 452.703 326.081C459.381 318.805 470.148 317.931 475.784 309.384C481.959 300.018 479.615 287.33 478.983 276.839C478.391 267.004 477.942 257.219 477.173 247.389C476.235 235.398 473.581 222.778 475.87 210.824C477.886 200.297 483.143 191.52 488.501 182.419C460.108 152.04 470.956 135.932 476.159 101.135C477.356 93.1271 477.12 84.8653 477.072 76.7935C477.034 70.2205 477.236 62.5058 475.46 56.1549C473.567 49.383 458.351 42.1056 452.408 38.6587C447.122 35.5925 446.018 32.5172 444.533 26.8711C447.278 25.687 450.046 24.7926 452.995 24.2835Z"/><path fill="#040453" transform="matrix(0.636554 0 0 0.636554 -73.2031 0)" d="M187.712 25.9361L188.062 25.9059C194.842 25.3842 202.237 27.9833 207.327 32.4755C208.969 33.9244 210.571 35.9114 210.65 38.1901C210.873 44.6173 197.595 45.8504 192.769 47.7468C188.225 49.5324 183.929 52.1175 180.509 55.6323C176.057 60.2062 173.146 66.702 172.966 73.1212C172.748 80.9225 177.165 98.9903 178.834 107.346C181.396 120.172 183.22 133.284 183.616 146.367C183.852 154.13 183.612 161.682 180.411 168.918C178.401 173.462 172.778 178.304 172.551 183.281C172.362 187.41 176.637 193.287 178.398 197.062C179.433 199.306 180.352 201.601 181.149 203.94C183.15 209.73 184.414 215.749 184.911 221.854C185.669 231.188 184.845 241.002 182.962 250.157C180.943 259.973 178.121 269.305 178.33 279.451C178.488 287.142 180.75 300.567 185.084 306.991C186.544 309.156 188.767 310.85 190.628 312.66C192.621 314.598 195.658 318.147 195.692 321.017C194.884 323.094 193.281 324.429 191.298 325.357C186.622 327.546 182.807 326.396 178.18 324.756C174.03 323.356 169.696 321.963 166.065 319.451C160.363 315.505 156.246 308.713 153.052 302.652C150.237 297.308 147.036 291.055 145.938 285.086C144.638 278.016 146.058 271.889 147.457 265.012L151.649 244.53C152.678 239.7 154.052 234.759 154.462 229.834C154.79 225.893 154.629 221.77 153.863 217.885C152.679 211.883 148.658 197.253 143.738 193.752C140.479 191.434 136.432 190.261 133.114 187.971C131.404 186.792 129.66 185.282 129.37 183.097C128.805 178.828 137.077 173.805 139.972 171.246C141.385 169.996 142.57 168.531 143.692 167.02C161.429 143.126 148.705 110.437 144.869 84.0476C142.828 70.0103 142.639 55.4157 151.609 43.5179C159.999 32.3897 174.42 27.7214 187.712 25.9361Z"/></g></svg>
