<?xml version="1.0" encoding="utf-8" ?><svg xmlns="http://www.w3.org/2000/svg" xmlns:xlink="http://www.w3.org/1999/xlink" width="652" height="505" viewBox="0 0 652 505"><clipPath id="cl_4"><rect width="652" height="505"/></clipPath><g clip-path="url(#cl_4)"><path fill="white" transform="translate(0 -5)" d="M230.498 45.6737C245.344 45.3042 260.21 45.6715 275.058 45.6285C294.727 45.5714 314.438 45.2255 334.101 45.8187C341.979 58.965 346.674 79.9576 347.73 95.1854C347.933 98.1176 348.289 101.173 347.934 104.1C351.192 100.621 354.711 98.0677 359.178 96.3151C365.046 94.0131 371.406 94.4675 377.12 97.057C382.752 99.6095 386.914 104.168 389.043 109.962C391.203 116.018 390.861 122.685 388.094 128.488C385.48 133.923 380.65 138.373 374.916 140.289C368.855 142.315 361.755 141.803 356.067 138.878C351.15 136.348 347.948 132.741 346.268 127.497C345.413 139.662 336.994 158.151 331.719 169.354C329.339 168.586 326.98 167.741 324.615 166.928C316.244 163.812 307.842 160.496 299.344 157.752C300.13 152.98 300.895 148.238 300.771 143.382C300.534 134.045 296.603 125.674 289.817 119.304C283.1 113 273.977 109.972 264.847 110.266C255.603 110.502 246.847 114.467 240.57 121.258C231.72 130.822 231.306 141.585 231.719 153.916C223.327 154.974 215.185 157.488 207.657 161.344C204.343 163.063 201.285 165.317 197.675 166.384C197.495 165.416 197.38 164.438 197.33 163.455C196.967 157.095 197.248 150.602 197.255 144.227L197.431 106.142C197.486 100.323 197.497 94.5032 197.462 88.6836C197.432 83.2591 197.081 77.5948 198.028 72.238C199 66.7346 201.359 61.5981 205.122 57.4483C212.106 49.7474 220.184 46.2216 230.498 45.6737Z"/><path fill="white" transform="translate(0 -5)" d="M357.47 45.6726C369.388 45.4039 381.304 45.6672 393.222 45.6231C403.652 45.5844 414.184 45.1937 424.604 45.5707C434.452 45.9271 443.184 49.3111 449.918 56.6601C454.259 61.4261 457.179 67.3127 458.348 73.6534C459.513 80.1463 459.034 87.187 459.003 93.7713L458.809 123.908C458.667 147.912 459.545 172.059 458.531 196.028C452.045 197.253 445.646 198.991 439.116 199.975C428.851 201.521 418.547 201.352 408.21 200.998C409.94 203.316 411.467 205.754 412.494 208.467C414.858 214.708 414.773 222.192 412.019 228.294C409.629 233.495 405.26 237.524 399.885 239.486C393.572 241.854 386.25 241.348 380.168 238.585C375.999 236.345 372.424 233.196 370.168 228.981C367.286 223.597 366.468 216.521 368.264 210.66C370.181 204.402 375.561 198.681 381.279 195.67C367.171 190.612 353.756 183.797 341.35 175.386C343.001 171.177 345.145 167.156 346.864 162.968C348.624 158.681 349.917 153.848 352.179 149.822C357.639 151.74 363.288 153.371 369.137 153.031C377.821 152.526 386.889 148.562 392.669 141.982C399.225 134.52 402.526 125.221 401.772 115.255C401.059 105.841 396.364 97.2458 389.149 91.1899C379.985 83.4985 369.008 83.0269 357.66 84.0444C356.203 76.9229 355.039 70.1617 352.927 63.1602C351.194 57.4137 348.561 51.7703 347.409 45.8745L357.47 45.6726Z"/><path fill="white" transform="translate(0 -5)" d="M262.624 121.512C263.69 121.424 264.759 121.339 265.828 121.318C272.015 121.245 277.982 123.613 282.437 127.908C286.991 132.337 289.598 138.396 289.681 144.749C289.722 153.412 285.392 158.477 279.613 164.347C283.996 164.793 288.442 166.217 292.651 167.484C303.766 170.83 314.159 174.922 324.862 179.393C323.517 183.359 321.116 187.316 319.266 191.085C316.047 197.584 312.984 204.159 310.079 210.805C304.844 209.236 299.59 207.474 294.086 207.25C284.992 206.879 276.335 209.96 269.654 216.147C262.86 222.439 259.364 231.09 259.042 240.28C258.721 249.419 261.86 258.371 268.172 265.048C277.053 274.443 286.316 275.394 298.48 275.728C299.567 285.633 300.74 295.666 303.356 305.305L304.361 307.738C292.487 308.149 280.662 307.589 268.808 307.845C256.568 308.109 242.719 309.344 230.622 308.361C220.443 307.635 211.011 302.75 204.541 294.856C201.27 290.944 198.886 286.42 197.972 281.374C196.739 274.56 197.145 267.203 197.173 260.306L197.21 234.418L197.147 204.981C197.083 196.392 196.815 187.821 197.607 179.255C209.559 170.858 236.201 161.324 250.571 162.49C250.511 162.437 250.449 162.383 250.389 162.329L250.089 162.054C246.713 159.052 244.379 155.053 243.424 150.636C241.932 143.995 243.005 136.816 246.72 131.078C250.534 125.188 256.021 122.899 262.624 121.512Z"/><path fill="white" transform="translate(0 -5)" d="M335.195 185.172C343.818 189.502 351.872 194.937 360.479 199.327C358.888 205.478 356.259 210.546 356.071 217.097C355.854 226.193 359.303 234.994 365.641 241.519C371.963 248.21 380.684 252.114 389.885 252.372C399.172 252.514 408.137 248.969 414.816 242.513C423.585 233.978 425.148 223.72 425.27 212.071C436.755 212.028 447.851 209.339 459.022 207C458.794 214.206 459.021 221.406 459.049 228.613L458.979 256.933C458.967 264.688 459.678 273.425 458.047 281.043C456.911 286.27 454.518 291.142 451.075 295.236C442.314 305.757 434.638 306.792 422.016 307.962C413.04 308.166 404.03 308.005 395.051 308.011L343.843 308.031C334.574 308.027 325.275 307.85 316.012 308.141C310.939 294.635 306.845 272.178 309.858 257.86L309.525 258.201C307.907 259.879 306.143 261.221 304.093 262.341C298.254 265.531 291.757 265.717 285.467 263.818C279.719 262.082 274.947 258.483 272.135 253.127C269.111 247.365 268.576 239.93 270.511 233.738C272.313 228.07 276.329 223.372 281.646 220.71C287.322 217.84 294.687 217.13 300.746 219.13C307.1 221.229 311.326 226.131 314.267 231.967C319.887 216.128 324.908 198.725 335.195 185.172Z"/><path fill="white" transform="translate(0 -5)" d="M452.995 24.2835C461.241 23.7154 474.449 29.0907 481.868 32.8185C488.137 35.9684 494.176 40.4255 498.752 45.7483C512.056 61.2256 509.881 80.3716 507.967 99.1458C506.495 113.585 504.25 127.914 502.398 142.305C501.704 147.697 499.675 156.646 501.417 161.701C504.374 170.283 515.245 170.535 522.146 173.947C524.758 175.239 527.735 177.194 528.616 180.138C530.882 187.711 520.038 194.637 515.568 199.335C511.711 203.389 508.427 208.112 507.004 213.593C505.648 218.813 506.023 224.673 506.051 230.041C506.089 237.216 506.624 244.332 507.004 251.493C507.281 256.708 507.36 261.937 507.683 267.148C508.321 277.461 511.844 306.989 508.472 315.136C508.161 315.881 507.806 316.608 507.41 317.312C502.988 325.205 493.698 332.044 485.025 334.419C482.513 335.189 480.043 335.673 477.413 335.815C468.645 336.289 459.184 331.901 452.703 326.081C459.381 318.805 470.148 317.931 475.784 309.384C481.959 300.018 479.615 287.33 478.983 276.839C478.391 267.004 477.942 257.219 477.173 247.389C476.235 235.398 473.581 222.778 475.87 210.824C477.886 200.297 483.143 191.52 488.501 182.419C460.108 152.04 470.956 135.932 476.159 101.135C477.356 93.1271 477.12 84.8653 477.072 76.7935C477.034 70.2205 477.236 62.5058 475.46 56.1549C473.567 49.383 458.351 42.1056 452.408 38.6587C447.122 35.5925 446.018 32.5172 444.533 26.8711C447.278 25.687 450.046 24.7926 452.995 24.2835Z"/><path fill="white" transform="translate(0 -5)" d="M187.712 25.9361L188.062 25.9059C194.842 25.3842 202.237 27.9833 207.327 32.4755C208.969 33.9244 210.571 35.9114 210.65 38.1901C210.873 44.6173 197.595 45.8504 192.769 47.7468C188.225 49.5324 183.929 52.1175 180.509 55.6323C176.057 60.2062 173.146 66.702 172.966 73.1212C172.748 80.9225 177.165 98.9903 178.834 107.346C181.396 120.172 183.22 133.284 183.616 146.367C183.852 154.13 183.612 161.682 180.411 168.918C178.401 173.462 172.778 178.304 172.551 183.281C172.362 187.41 176.637 193.287 178.398 197.062C179.433 199.306 180.352 201.601 181.149 203.94C183.15 209.73 184.414 215.749 184.911 221.854C185.669 231.188 184.845 241.002 182.962 250.157C180.943 259.973 178.121 269.305 178.33 279.451C178.488 287.142 180.75 300.567 185.084 306.991C186.544 309.156 188.767 310.85 190.628 312.66C192.621 314.598 195.658 318.147 195.692 321.017C194.884 323.094 193.281 324.429 191.298 325.357C186.622 327.546 182.807 326.396 178.18 324.756C174.03 323.356 169.696 321.963 166.065 319.451C160.363 315.505 156.246 308.713 153.052 302.652C150.237 297.308 147.036 291.055 145.938 285.086C144.638 278.016 146.058 271.889 147.457 265.012L151.649 244.53C152.678 239.7 154.052 234.759 154.462 229.834C154.79 225.893 154.629 221.77 153.863 217.885C152.679 211.883 148.658 197.253 143.738 193.752C140.479 191.434 136.432 190.261 133.114 187.971C131.404 186.792 129.66 185.282 129.37 183.097C128.805 178.828 137.077 173.805 139.972 171.246C141.385 169.996 142.57 168.531 143.692 167.02C161.429 143.126 148.705 110.437 144.869 84.0476C142.828 70.0103 142.639 55.4157 151.609 43.5179C159.999 32.3897 174.42 27.7214 187.712 25.9361Z"/><path fill="white" transform="translate(0 -5)" d="M246.135 382.058C251.118 381.77 268.816 380.767 272.316 383.5C273.175 385.104 273.378 387.42 273.491 389.22C274.123 399.323 273.493 409.631 273.729 419.767C273.98 430.523 274.255 441.247 274.325 452.009C274.364 457.934 274.636 464.066 273.984 469.956C273.122 477.743 269.582 485.608 263.319 490.484C250.756 500.265 230.82 498.956 215.922 496.98C214.205 496.752 212.294 496.259 211.247 494.755C209.567 492.341 210.415 480.264 210.937 476.98C211.136 475.728 211.331 475.325 212.306 474.589C221.532 475.154 233.782 479.337 242.602 475.398C246.043 473.861 247.523 471.241 248.795 467.835C234.735 467.652 220.254 466.646 208.966 457.13C201.547 450.874 197.244 441.401 196.479 431.806C195.504 419.568 197.407 408.188 205.673 398.614C215.685 387.016 231.459 383.049 246.135 382.058ZM230.172 440.692C236.341 443.496 241.758 444.19 248.484 444.324C248.425 431.359 248.615 418.266 248.041 405.318L244.983 405.582C237.59 406.889 230.435 408.46 225.835 414.999C222.811 419.298 221.853 425.104 222.782 430.235C223.569 434.578 225.947 437.844 229.558 440.284C229.762 440.421 229.967 440.557 230.172 440.692Z"/><path fill="white" transform="translate(0 -5)" d="M518.053 352.938C522.865 352.556 528.044 352.783 532.883 352.879C534.859 352.919 537.674 352.912 539.128 354.421C539.917 356.63 540.235 358.88 540.332 361.219C540.648 368.859 540.374 376.634 540.367 384.289L540.361 426.96L540.36 450.87C540.358 454.824 540.745 459.273 540.11 463.153C539.904 464.417 539.449 466.035 538.295 466.762C534.844 468.933 509.66 467.55 504.71 466.955C499.591 466.34 494.701 465.425 489.731 464.063C483.481 461.87 477.97 459.047 473.373 454.143C465.686 445.942 463.481 434.737 463.889 423.813C464.306 412.631 468.387 402.911 476.695 395.313C485.753 387.03 501.873 381.285 514.337 381.852C514.195 376.589 513.219 359.007 514.943 355.121C515.525 353.808 516.816 353.42 518.053 352.938ZM496.472 439.842C502.194 443.306 507.625 443.949 514.121 444.538C514.259 440.176 514.735 406.889 513.819 405.513L513.065 405.584C505.777 406.835 498.019 408.463 493.426 414.862C490.529 418.897 489.295 424.801 490.158 429.679C490.891 433.823 493.033 437.4 496.472 439.842Z"/><path fill="white" transform="translate(0 -5)" d="M141.337 382.055C150.601 381.076 161.314 383.957 168.629 389.758C177.602 396.873 182.602 407.609 183.875 418.851C185.29 431.344 182.789 445.126 174.723 455.052C168.159 463.13 158.944 467.636 148.699 468.741C137.815 469.001 128.2 467.634 119.51 460.419C110.912 453.28 106.078 442.251 105.136 431.259C104.027 418.309 106.373 404.961 115.021 394.791C121.734 386.897 131.169 382.889 141.337 382.055ZM147.169 444.76C151.168 443.791 154.313 441.817 156.484 438.247C159.943 432.556 160.274 424.046 158.678 417.728C157.665 413.715 155.48 409.948 151.842 407.799C148.694 405.939 145.335 405.745 141.77 405.958C138.075 406.65 135.369 408.408 133.271 411.533C129.444 417.236 129.043 425.456 130.399 431.999C131.285 436.271 133.471 440.68 137.251 443.086C140.276 445.011 143.685 445.468 147.169 444.76Z"/><path fill="white" transform="translate(0 -5)" d="M342.029 353.002C346.437 352.73 358.636 352.051 362.308 353.907C363.243 355.14 363.507 356.987 363.657 358.506C364.308 365.137 363.797 372.231 363.793 378.904C363.786 389.521 364.045 400.198 363.744 410.807C366.838 406.938 391.305 382.717 393.898 382.022C395.178 381.679 396.919 382.748 397.961 383.453C399.607 384.567 401.094 385.921 402.678 387.12C405.293 389.1 410.93 392.002 411.568 395.389C411.26 396.712 410.49 397.808 409.647 398.853C407.228 401.849 404.202 404.534 401.474 407.267L384.762 423.884C387.787 426.755 390.391 430.748 392.899 434.093C397.605 440.464 402.368 446.793 407.187 453.079C408.392 454.752 410.287 456.863 409.858 459.099C409.63 460.292 408.223 461.206 407.267 461.831C403.842 464.068 392.615 470.046 388.673 468.883C386.3 468.183 365.774 439.522 363.733 435.693C363.746 440.834 364.52 461.458 363.238 464.893C362.867 465.888 361.999 466.615 361.028 466.99C358.143 468.105 342.509 468.135 339.964 466.864C339.054 466.409 338.697 466.004 338.422 465.023C336.721 458.958 337.533 450.229 337.547 443.878L337.603 416.566L337.546 380.18C337.543 373.789 337.368 367.336 337.637 360.951C337.72 358.985 337.643 356.416 338.792 354.738C339.605 353.552 340.694 353.305 342.029 353.002Z"/><path fill="white" transform="translate(0 -5)" d="M25.1156 353.003C29.5402 352.813 34.0884 352.781 38.5161 352.888C40.304 352.932 43.2923 352.951 44.5439 354.418C45.6108 355.669 45.957 357.48 46.1165 359.066C46.654 364.409 46.4038 369.877 46.5557 375.244L47.3998 409.969C47.5782 421.131 48.6451 432.426 48.1864 443.569C54.6187 443.362 86.4935 442.619 90.3085 444.289C91.4547 444.791 92.1423 445.833 92.5397 446.978C93.7209 450.382 93.7307 461.789 92.0079 465.088C91.2639 466.512 90.2 467.081 88.7049 467.5C85.3879 467.957 81.9278 467.756 78.5799 467.756L62.9309 467.762L40.5838 467.762C36.6425 467.762 32.6192 467.942 28.6891 467.693C26.7708 467.572 24.5027 467.287 22.8157 466.321C22.2459 465.584 21.8356 464.888 21.6212 463.971C20.8772 460.788 20.9993 456.93 20.833 453.649C20.1425 440.03 20.4492 426.319 20.2555 412.682C20.0732 399.846 19.539 387.025 19.3984 374.181C19.3429 369.115 19.1111 363.965 19.3615 358.907C19.4306 357.511 19.6061 356.33 20.4286 355.153C21.5614 353.533 23.3036 353.245 25.1156 353.003Z"/><path fill="white" transform="translate(0 -5)" d="M586.638 382.08C593.096 381.755 599.575 381.712 605.939 383.035C609.921 383.863 619.191 386.161 621.323 389.797C622.57 391.922 621.24 406.821 620.437 409.478C617.841 410.847 607.38 405.569 603.91 404.665C601.886 404.137 599.563 404.052 597.474 403.954C594.007 403.791 588.39 403.611 585.698 406.271C585.11 406.852 584.792 407.599 584.836 408.428C585.158 414.481 601.248 418.774 606.164 421.014C609.853 422.694 613.467 424.729 616.452 427.503C621.156 431.873 623.623 437.791 623.842 444.174C624.045 450.107 622.072 456.079 617.936 460.401C611.53 467.094 601.716 468.931 592.818 469.181C580.364 469.887 568.918 467.323 557.874 461.595C558.453 460.219 558.394 458.652 558.584 457.182C559.083 453.321 559.713 445.276 561.885 442.096C562.894 441.526 563.545 441.461 564.713 441.659C567.295 442.097 569.938 443.408 572.399 444.304C577.622 446.207 584.476 447.835 590.056 447.357C591.575 447.227 593.056 446.795 594.033 445.548C594.745 444.639 595.26 443.17 595.063 442.01C594.308 437.584 580.692 434.221 576.716 432.499C573.374 431.076 570.198 429.29 567.245 427.174C562.016 423.372 557.835 418.13 556.868 411.59C555.909 405.106 557.13 398.81 561.118 393.547C567.305 385.383 577.069 383.354 586.638 382.08Z"/><path fill="white" transform="translate(0 -5)" d="M298.147 388.193C302.934 387.971 313.506 386.79 317.415 389.603C318.644 390.487 318.864 392.182 319.082 393.587C319.988 399.437 319.754 405.734 319.75 411.643L319.714 435.4C319.702 443.68 320.412 452.402 319.719 460.627C319.563 462.479 319.285 464.365 318.094 465.868C317.205 466.991 316.125 467.275 314.766 467.479C310.755 467.794 298.591 468.572 295.325 466.839C294.18 466.231 293.578 465.007 293.268 463.8C292.006 458.895 292.721 438.707 292.732 432.383C292.753 420.163 292.245 407.713 292.823 395.518C292.892 394.047 292.887 391.641 293.681 390.361C294.629 388.835 296.526 388.53 298.147 388.193Z"/><path fill="white" transform="translate(0 -5)" d="M429.127 388.15C433.343 387.951 444.691 387.078 447.806 389.666C449.273 390.885 449.421 393.542 449.592 395.34C450.112 400.788 449.963 406.402 449.967 411.872L449.972 435.595C449.976 444.096 450.768 452.902 450.009 461.355C449.88 462.789 449.57 464.46 448.569 465.558C447.419 466.818 446.165 467.327 444.512 467.458C440.132 467.678 429.388 468.722 425.755 466.808C424.687 466.245 423.844 465.029 423.563 463.866C422.811 460.751 423.216 456.616 423.216 453.396L423.234 434.998C423.253 421.835 422.631 407.839 423.294 394.761C423.356 393.533 423.369 391.442 424.08 390.394C425.206 388.732 427.301 388.438 429.127 388.15Z"/><path fill="white" transform="translate(0 -5)" d="M302.984 351.113C310.834 349.612 318.443 354.662 320.111 362.48C321.78 370.297 316.896 378.015 309.118 379.851C303.937 381.075 298.498 379.399 294.904 375.47C291.309 371.541 290.121 365.974 291.798 360.919C293.475 355.865 297.755 352.113 302.984 351.113Z"/><path fill="white" transform="translate(0 -5)" d="M433.065 351.112C441.036 349.437 448.844 354.58 450.454 362.566C452.065 370.552 446.862 378.32 438.866 379.868C430.959 381.399 423.297 376.265 421.705 368.368C420.112 360.471 425.184 352.767 433.065 351.112Z"/></g></svg>
